<svg xmlns="http://www.w3.org/2000/svg" width="21" height="16" viewBox="0 0 21 16">
<defs>
    <style>
      .cls-1 {
        fill: #263c75;
        fill-rule: evenodd;
      }
    </style>
  </defs>
  <path id="Car" class="cls-1" d="M1461.96,5067.33l-0.24-.66a1.091,1.091,0,0,0-.94-0.67h-0.87c-0.65-1.74-1.45-3.85-1.68-4.34a3.331,3.331,0,0,0-2.15-1.28,27.851,27.851,0,0,0-9.17,0,3.679,3.679,0,0,0-2.18,1.32c-0.19.35-1,2.51-1.66,4.3h-0.85a1.079,1.079,0,0,0-.94.67l-0.24.66a0.465,0.465,0,0,0,.46.67h0.84c-0.11.3-.17,0.48-0.17,0.48a2.6,2.6,0,0,0-.12.74v6.07a0.726,0.726,0,0,0,.74.71h2.72a0.726,0.726,0,0,0,.74-0.71V5074h10.5v1.29a0.726,0.726,0,0,0,.74.71h2.72a0.726,0.726,0,0,0,.74-0.71v-6.07a2.6,2.6,0,0,0-.12-0.74s-0.07-.18-0.18-0.48h0.85a0.468,0.468,0,0,0,.46-0.67h0Zm-15.73,3.72h-1.12c-1,0-2.01-.13-2.01-0.73v-0.74c0-.71.43-0.74,0.9-0.74a5.662,5.662,0,0,1,2,.16,2.209,2.209,0,0,1,1.33,1.43c0,0.43-.25.62-1.1,0.62h0Zm-1.56-4.78a22.353,22.353,0,0,1,1.29-3.77c0.1-.25.2-1.02,5.54-1.02s5.46,0.88,5.47.89a30.16,30.16,0,0,1,1.34,3.9h-13.64Zm10.99,4.16A2.227,2.227,0,0,1,1457,5069a5.646,5.646,0,0,1,2-.16c0.46,0,.9.03,0.9,0.74v0.74h0c0,0.6-1.01.73-2.01,0.73h-1.13c-0.84,0-1.1-.19-1.1-0.62h0Z" transform="translate(-1441 -5060)"/>
</svg>
