<svg xmlns="http://www.w3.org/2000/svg" xmlns:xlink="http://www.w3.org/1999/xlink" preserveAspectRatio="xMidYMid" width="12.688" height="13.844" viewBox="0 0 12.688 13.844">
  <defs>
    <style>
      .cls-1 {
        fill: #000;
        fill-rule: evenodd;
      }
    </style>
  </defs>
  <path d="M12.695,11.518 C12.695,9.480 12.216,6.349 9.573,6.349 C9.293,6.349 8.112,7.603 6.343,7.603 C4.575,7.603 3.393,6.349 3.113,6.349 C0.470,6.349 -0.008,9.480 -0.008,11.518 C-0.008,12.980 0.966,13.855 2.401,13.855 L10.286,13.855 C11.720,13.855 12.695,12.980 12.695,11.518 ZM9.808,3.462 C9.808,1.549 8.256,-0.002 6.343,-0.002 C4.431,-0.002 2.879,1.549 2.879,3.462 C2.879,5.375 4.431,6.926 6.343,6.926 C8.256,6.926 9.808,5.375 9.808,3.462 Z" class="cls-1"/>
</svg>
