<?xml version="1.0" encoding="utf-8"?>
<!-- Generator: Adobe Illustrator 17.1.0, SVG Export Plug-In . SVG Version: 6.00 Build 0)  -->
<!DOCTYPE svg PUBLIC "-//W3C//DTD SVG 1.1//EN" "http://www.w3.org/Graphics/SVG/1.1/DTD/svg11.dtd">
<svg version="1.1" id="Layer_1" xmlns="http://www.w3.org/2000/svg" xmlns:xlink="http://www.w3.org/1999/xlink" x="0px" y="0px"
	 viewBox="0 198 500 103.9" enable-background="new 0 198 500 103.9" xml:space="preserve">
<path fill-rule="evenodd" clip-rule="evenodd" fill="#CF0A2C" d="M103.9,228.9v42c0,17.1-13.9,31-31,31h-42c-17,0-30.9-13.9-30.9-31
	v-42c0-17,13.9-30.9,30.9-30.9h42C90,198,103.9,211.9,103.9,228.9z M84.7,262.7v0.5c-0.2,1.8-1.2,3.7-3.2,3.7
	c-1.4,0-2.6-0.5-3.5-1.7c-1.1-1.4-2.1-2.9-3.2-5.7c2.9-9.9,11.9-41.6,11.9-41.6h-17c0,0-1.5,7.5-3.1,14.2c0-0.2-0.2-0.3-0.2-0.5
	c-1.4-3.1-3.7-6.4-6.3-8.7c-4.4-4.1-9.6-6.1-15.7-6.1c-8.6,0-15.9,3.2-21.7,9.5c-5.7,6.3-8.7,14.2-8.7,23.2c0,9.9,2.9,18,8.6,24.1
	c6,6.4,13,9.5,22.3,9.5c5.3,0,10.5-1.5,15.3-4.7c3.1-2,6-4.9,8.6-8.6c1.1,3.7,2.3,6.1,3.5,7.9c2.1,3.1,5.5,4.7,9,4.7
	c3.7,0,7-1.8,8.7-4.9c1.5-2.6,2.1-6,2.1-11.5v-3.4h-7.5V262.7z M56.1,269.1c-2.6,3.8-6,5.8-9.8,5.8c-4.4,0-7.8-2-10.2-6.1
	c-2.6-4.3-3.8-10.7-3.8-19.1c0-7.6,1.4-13.8,4.1-18.2c2.6-4.1,5.8-6,10.1-6c3.8,0,6.9,1.7,9.5,5c2.8,3.7,5.2,9.8,6.9,17.7
	C60.8,258.9,58.7,265.3,56.1,269.1z M155.9,219.4c-1.2-5.3-4.6-9-11.9-9c-6.9,0-10.7,3.7-11.9,9l-5.2,24h5.7c1.4,0,2.6-1.1,2.9-2.3
	l1.1-4.9h15.1l1.1,4.9c0.3,1.2,1.5,2.3,2.9,2.3h5.7L155.9,219.4 M138,229.5l1.8-8.6c0.3-1.4,1.4-3.5,4.1-3.5c2.8,0,3.8,2.1,4.1,3.5
	l1.8,8.6H138z M175.3,218.5v14.2c0,6.9-3.8,10.8-9.3,10.8h-1.5l-1.5-6.9l1.7-0.5c1.7-0.3,2.8-1.7,2.8-4v-16.4c0-2.6,2.1-4.7,4.7-4.7
	h23.7v32.2H188v-24.9H175.3 M264.2,211.2h-2.9v-3.7h-5.5c-1.4,0-2.3,1.1-2.3,2.3v1.4h-2.9c-9.8,0-15.9,6.6-15.9,16.2
	c0,9.5,6.1,16.2,15.9,16.2h2.9v4h5.5c1.4,0,2.3-1.1,2.3-2.3v-1.5h2.9c9.8,0,15.9-6.6,15.9-16.2C280.1,217.9,274,211.2,264.2,211.2
	 M250.6,236.4c-5.3,0-7.9-3.4-7.9-9c0-5.7,2.6-9,7.9-9h2.9v18C253.5,236.4,250.6,236.4,250.6,236.4z M264.2,236.4h-2.9v-18h2.9
	c5.3,0,7.9,3.4,7.9,9C272.2,232.9,269.7,236.4,264.2,236.4z M220.4,219.4H209v-8.3h-7.9v30c0,1.2,1.1,2.3,2.3,2.3h16.8
	c6.9,0,12.1-5.2,12.1-12.1C232.3,224.6,228,219.4,220.4,219.4 M220.4,236.2H209v-9.6h11.3c2,0,4.1,1.7,4.1,4.7
	C224.5,234.6,222.2,236.2,220.4,236.2z M309.4,219.4c-1.2-5.3-4.6-9-11.9-9c-6.9,0-10.7,3.7-11.9,9l-5.3,24h5.7
	c1.2,0,2.6-1.1,2.9-2.3l1.1-4.9H305l1.1,4.9c0.3,1.2,1.5,2.3,2.9,2.3h5.7L309.4,219.4 M291.6,229.5l1.8-8.6c0.3-1.4,1.4-3.5,4.1-3.5
	c2.8,0,3.8,2.1,4.1,3.5l1.8,8.6H291.6z M355.1,272c1.4-1.4,2.3-3.2,2.3-5.8c0-5.7-4.4-9.8-10.1-9.8h-19.3c-1.2,0-2.3,1.1-2.3,2.3
	v27.5c0,1.2,1.1,2.3,2.3,2.3h20.5c6,0,10.1-4.3,10.1-10.1C358.5,275.8,357.1,273.5,355.1,272 M347.2,263.1c1.1,0,2.4,1.2,2.4,3.2
	c0,2-1.4,3.1-2.4,3.2h-13.9v-6.4C333.3,263.1,347.2,263.1,347.2,263.1z M347.8,282.1h-14.5v-6.4h14.5c1.1,0.2,2.4,1.2,2.4,3.2
	C350.4,280.9,348.9,282.1,347.8,282.1z M303,255.8c-9.8,0-16.5,6.9-16.5,16.8c0,9.9,6.9,16.8,16.5,16.8h2.8
	c9.8,0,16.5-6.9,16.5-16.8c0-9.9-6.9-16.8-16.5-16.8H303 M295.1,272.6c0-5.8,3.1-10.2,8.6-10.2h1.7c5.3,0,8.6,4.4,8.6,10.2
	c0,5.8-3.1,10.2-8.6,10.2h-1.7C298.1,282.9,295.1,278.4,295.1,272.6z M156.2,256.6h30.1l-1.1,4.9c-0.3,1.4-1.5,2.3-2.9,2.3h-7.2
	v25.1h-7.9v-25.1h-7.3c-1.2,0-2.6-1.1-2.9-2.3L156.2,256.6 M421.5,256.6h7.9v32.2h-7.9v-12.5h-15.3v12.5h-7.9v-32.2h7.9v12.8h15.3
	V256.6 M247.9,264.7c-1.2-5.3-4.6-9-11.9-9c-6.9,0-10.7,3.7-11.9,9l-5.3,24h5.7c1.4,0,2.6-1.1,2.9-2.3l1.1-4.9h15.1l1.1,4.9
	c0.3,1.2,1.5,2.3,2.9,2.3h5.7L247.9,264.7 M229.8,274.8l1.8-8.6c0.3-1.4,1.4-3.5,4.1-3.5s3.8,2.1,4.1,3.5l1.8,8.6H229.8z
	 M389.4,264.7c-1.2-5.3-4.6-9-11.9-9c-6.9,0-10.7,3.7-11.9,9l-5.3,24h5.7c1.2,0,2.6-1.1,2.9-2.3l1.1-4.9h15.1l1.1,4.9
	c0.3,1.2,1.5,2.3,2.9,2.3h5.7L389.4,264.7 M371.5,274.8l1.8-8.6c0.3-1.4,1.4-3.5,4.1-3.5s3.8,2.1,4.1,3.5l1.8,8.6H371.5z
	 M158.6,288.7L158.6,288.7l-15.4,0.2c-9.3,0-15.9-6.6-15.9-16.2c0-9.5,6.6-16.2,15.9-16.2h11.6l-1.1,4.9c-0.3,1.2-1.5,2.3-2.9,2.3
	h-7.6c-5,0-7.9,3.7-7.9,8.9s2.9,8.9,7.9,8.9h11.3c1.2,0,2.6,1.1,2.9,2.3L158.6,288.7 M207.4,256.6h-16.8c-1.4,0-2.3,1.1-2.3,2.3v30
	h7.9v-8.3h11.3c7.6,0,12.1-5.2,12.1-12.1C219.4,261.6,214.2,256.6,207.4,256.6 M207.4,273.4h-11.3v-9.6h11.3c2,0,4.1,1.7,4.1,4.7
	C211.5,271.5,209.4,273.4,207.4,273.4z M496,281.9c1.4,0,2.4,0.6,2.9,2.3l1.1,4.4h-26.4c-1.2,0-2.3-1.1-2.3-2.3v-27.5
	c0-1.4,1.1-2.3,2.3-2.3H500l-1.1,4.4c-0.5,1.7-1.5,2.3-2.9,2.3h-17v6.3h18.5v6.3h-18.5v6.3h17 M434.7,288.8v-32.2h7.9v21.2
	l13.6-19.4c0.8-1.1,2.4-1.8,3.8-1.8h5.8v32.2H458v-21.4l-13.6,19.4c-0.8,1.1-2.4,1.8-3.8,1.8h-5.8 M276.9,272.5l11.2,16.4h-7.5
	c-1.5,0-2.6-0.5-3.7-2l-5.8-9.2H270l-5.8,9.2c-0.9,1.5-2,2-3.7,2h-7.2l11-15.9l-11.2-16.4h7.5c1.5,0,2.6,0.5,3.7,2l5.8,9.2h1.1
	l5.8-9.2c0.9-1.5,2.1-2,3.7-2h7.2L276.9,272.5"/>
</svg>
