<svg xmlns="http://www.w3.org/2000/svg" xmlns:xlink="http://www.w3.org/1999/xlink" preserveAspectRatio="xMidYMid" width="209" height="48" viewBox="0 0 209 48">
  <defs>
    <style>
      .cls-1 {
        fill: #e76363;
      }

      .cls-1, .cls-2 {
        fill-rule: evenodd;
      }

      .cls-2 {
        fill: #59c6f2;
      }
    </style>
  </defs>
  <g>
    <path d="M202.172,33.161 L202.947,30.728 L205.655,30.728 L203.406,23.319 L202.646,23.319 L199.694,33.161 L197.156,33.161 L201.075,20.854 L205.063,20.854 L209.000,33.161 L202.172,33.161 ZM192.906,33.161 L190.506,27.990 L187.571,27.990 L187.571,33.161 L184.998,33.161 L184.998,20.854 L187.571,20.854 L187.571,25.663 L190.489,25.663 L192.751,20.854 L195.410,20.854 L192.647,26.835 L195.565,33.161 L192.906,33.161 ZM179.494,24.387 L179.045,24.387 L174.504,33.161 L171.154,33.161 L171.154,20.854 L173.554,20.854 L173.554,29.438 L174.003,29.438 L178.441,20.854 L181.911,20.854 L181.911,33.161 L179.494,33.161 L179.494,24.387 ZM165.667,23.991 L165.218,23.991 L163.146,28.955 L160.574,28.955 L158.519,23.991 L158.070,23.991 L158.070,33.161 L155.670,33.161 L155.670,20.854 L159.624,20.854 L161.644,25.818 L162.093,25.818 L164.096,20.854 L168.067,20.854 L168.067,33.161 L165.667,33.161 L165.667,23.991 ZM146.916,33.392 C143.392,33.392 140.524,30.530 140.524,27.012 C140.524,23.494 143.392,20.632 146.916,20.632 C148.663,20.632 150.355,21.358 151.557,22.625 C152.685,23.815 153.307,25.373 153.307,27.012 C153.307,28.639 152.693,30.188 151.580,31.374 C150.376,32.657 148.676,33.392 146.916,33.392 ZM149.671,24.408 C148.947,23.645 147.968,23.224 146.916,23.224 C144.824,23.224 143.121,24.923 143.121,27.012 C143.121,29.100 144.824,30.800 146.916,30.800 C147.976,30.800 148.959,30.374 149.685,29.601 C150.346,28.897 150.710,27.978 150.710,27.012 C150.710,26.039 150.341,25.114 149.671,24.408 ZM135.826,28.007 L130.370,28.007 L130.370,33.161 L127.797,33.161 L127.797,20.854 L130.370,20.854 L130.370,25.646 L135.826,25.646 L135.826,20.854 L138.398,20.854 L138.398,33.161 L135.826,33.161 L135.826,28.007 ZM119.227,33.392 C115.703,33.392 112.836,30.530 112.836,27.012 C112.836,23.494 115.703,20.632 119.227,20.632 C120.975,20.632 122.667,21.358 123.868,22.625 C124.997,23.815 125.619,25.373 125.619,27.012 C125.619,28.639 125.005,30.188 123.891,31.374 C122.688,32.657 120.988,33.392 119.227,33.392 ZM121.983,24.408 C121.259,23.645 120.280,23.224 119.227,23.224 C117.135,23.224 115.433,24.923 115.433,27.012 C115.433,29.100 117.135,30.800 119.227,30.800 C120.288,30.800 121.271,30.374 121.997,29.601 C122.658,28.897 123.022,27.978 123.022,27.012 C123.022,26.039 122.653,25.114 121.983,24.408 ZM109.330,33.161 L106.930,27.990 L103.995,27.990 L103.995,33.161 L101.422,33.161 L101.422,20.854 L103.995,20.854 L103.995,25.663 L106.912,25.663 L109.174,20.854 L111.833,20.854 L109.071,26.835 L111.989,33.161 L109.330,33.161 ZM94.536,30.800 C95.596,30.800 96.580,30.374 97.305,29.601 L99.200,31.374 C97.996,32.657 96.296,33.392 94.536,33.392 C91.012,33.392 88.145,30.530 88.145,27.012 C88.145,23.494 91.012,20.632 94.536,20.632 C96.283,20.632 97.975,21.358 99.177,22.625 L97.291,24.408 C96.567,23.645 95.589,23.224 94.536,23.224 C92.444,23.224 90.742,24.923 90.742,27.012 C90.742,29.100 92.444,30.800 94.536,30.800 ZM81.122,30.728 L83.830,30.728 L81.581,23.319 L80.822,23.319 L77.869,33.161 L75.331,33.161 L79.250,20.854 L83.239,20.854 L87.175,33.161 L80.348,33.161 L81.122,30.728 ZM71.286,33.161 L68.886,27.990 L65.951,27.990 L65.951,33.161 L63.378,33.161 L63.378,20.854 L65.951,20.854 L65.951,25.663 L68.869,25.663 L71.131,20.854 L73.790,20.854 L71.027,26.835 L73.945,33.161 L71.286,33.161 Z" class="cls-1"/>
    <path d="M55.177,8.627 L55.175,8.629 C55.169,8.629 55.163,8.625 55.157,8.625 C54.952,8.625 54.787,8.790 54.787,8.994 C54.787,9.001 54.782,9.020 54.782,9.020 C54.782,9.416 54.460,9.736 54.064,9.736 C53.667,9.735 53.346,9.414 53.347,9.018 L53.342,9.013 C53.342,9.006 53.346,9.000 53.346,8.993 C53.347,8.789 53.181,8.623 52.976,8.623 C52.969,8.623 52.963,8.626 52.956,8.627 L52.953,8.624 C52.556,8.623 52.235,8.302 52.236,7.906 C52.236,7.510 52.558,7.190 52.955,7.190 L52.958,7.187 C52.965,7.187 52.971,7.191 52.978,7.191 C53.183,7.191 53.349,7.026 53.349,6.822 C53.349,6.815 53.345,6.809 53.345,6.802 L53.350,6.797 C53.350,6.401 53.671,6.081 54.069,6.081 C54.465,6.082 54.786,6.403 54.785,6.799 C54.785,6.799 54.790,6.818 54.790,6.824 C54.789,7.028 54.954,7.194 55.158,7.194 C55.165,7.194 55.170,7.191 55.176,7.190 L55.179,7.193 C55.575,7.194 55.896,7.515 55.896,7.911 C55.895,8.306 55.573,8.627 55.177,8.627 ZM50.102,16.403 L50.100,16.406 C50.094,16.406 50.088,16.402 50.082,16.402 C49.877,16.401 49.712,16.567 49.712,16.771 C49.712,16.777 49.708,16.796 49.708,16.796 C49.707,17.192 49.385,17.513 48.989,17.512 C48.592,17.511 48.271,17.190 48.272,16.794 L48.267,16.789 C48.268,16.782 48.271,16.777 48.271,16.769 C48.272,16.565 48.106,16.399 47.902,16.399 C47.894,16.399 47.888,16.403 47.881,16.403 L47.878,16.400 C47.481,16.400 47.160,16.078 47.161,15.683 C47.161,15.287 47.483,14.966 47.880,14.967 L47.883,14.963 C47.890,14.964 47.897,14.967 47.903,14.967 C48.108,14.968 48.274,14.803 48.274,14.599 C48.274,14.592 48.270,14.585 48.270,14.578 L48.275,14.574 C48.275,14.178 48.597,13.857 48.993,13.858 C49.390,13.858 49.711,14.180 49.710,14.576 C49.710,14.576 49.715,14.594 49.715,14.600 C49.715,14.804 49.879,14.970 50.084,14.970 C50.090,14.970 50.095,14.967 50.101,14.967 L50.104,14.970 C50.500,14.970 50.822,15.291 50.821,15.687 C50.820,16.083 50.498,16.404 50.102,16.403 ZM45.048,8.614 L45.045,8.616 C45.039,8.616 45.033,8.612 45.027,8.612 C44.823,8.612 44.658,8.777 44.657,8.981 C44.657,8.988 44.653,9.007 44.653,9.007 C44.652,9.403 44.330,9.723 43.934,9.723 C43.537,9.722 43.217,9.401 43.217,9.005 L43.212,9.000 C43.213,8.993 43.217,8.987 43.217,8.979 C43.217,8.775 43.051,8.610 42.847,8.609 C42.839,8.609 42.833,8.613 42.826,8.614 L42.824,8.611 C42.427,8.610 42.106,8.289 42.106,7.893 C42.107,7.497 42.428,7.177 42.826,7.177 L42.828,7.174 C42.835,7.174 42.842,7.178 42.849,7.178 C43.053,7.178 43.219,7.013 43.220,6.809 C43.220,6.802 43.216,6.796 43.215,6.789 L43.220,6.784 C43.221,6.389 43.542,6.068 43.939,6.068 C44.335,6.069 44.656,6.390 44.656,6.786 C44.656,6.786 44.660,6.805 44.660,6.811 C44.660,7.015 44.825,7.180 45.029,7.181 C45.035,7.181 45.040,7.178 45.046,7.177 L45.049,7.180 C45.446,7.181 45.767,7.502 45.766,7.898 C45.766,8.293 45.444,8.614 45.048,8.614 ZM16.299,25.292 C16.299,24.680 16.797,24.185 17.411,24.186 C18.023,24.186 18.520,24.683 18.519,25.295 C18.518,25.908 18.021,26.403 17.408,26.403 C16.794,26.402 16.298,25.905 16.299,25.292 ZM19.371,35.903 C19.373,34.761 20.146,34.628 21.198,34.616 C21.408,34.614 21.629,34.616 21.858,34.616 C22.087,34.617 22.307,34.615 22.518,34.618 C23.570,34.632 24.343,34.767 24.342,35.909 C24.340,37.279 23.226,38.388 21.853,38.386 C20.481,38.384 19.369,37.272 19.371,35.903 ZM43.966,29.626 C43.958,29.758 43.946,29.889 43.935,30.021 C43.911,30.333 43.880,30.645 43.842,30.954 C43.826,31.091 43.809,31.230 43.789,31.366 C43.741,31.707 43.685,32.045 43.621,32.380 C43.605,32.466 43.592,32.553 43.575,32.639 C43.489,33.063 43.391,33.482 43.281,33.897 C43.261,33.974 43.237,34.049 43.216,34.125 C43.122,34.465 43.021,34.801 42.912,35.133 C42.876,35.243 42.838,35.351 42.801,35.460 C42.690,35.779 42.572,36.096 42.447,36.408 C42.414,36.492 42.382,36.575 42.348,36.658 C42.016,37.460 41.638,38.239 41.216,38.990 C41.186,39.043 41.154,39.096 41.124,39.149 C40.935,39.479 40.738,39.803 40.534,40.122 C40.500,40.174 40.467,40.227 40.433,40.279 C40.041,40.878 39.618,41.454 39.171,42.009 C38.790,42.484 38.392,42.944 37.973,43.385 C37.957,43.401 37.941,43.418 37.925,43.434 C36.683,44.734 35.283,45.882 33.755,46.848 C32.372,45.276 31.533,43.215 31.536,40.958 L31.562,17.160 L31.562,17.104 C29.503,17.102 27.715,18.255 26.809,19.949 C26.807,19.954 26.805,19.959 26.803,19.963 C29.534,21.570 31.393,24.481 31.528,27.841 C31.533,27.974 31.548,28.105 31.548,28.240 L31.545,30.286 C31.288,30.305 31.028,30.318 30.765,30.318 C25.237,30.311 20.762,25.832 20.769,20.313 C20.770,19.759 20.818,19.217 20.906,18.688 L20.906,18.688 L20.906,18.687 C19.512,18.829 18.205,19.263 17.049,19.932 C16.924,19.695 16.781,19.472 16.626,19.259 C15.831,18.168 14.645,17.415 13.289,17.172 C13.220,17.160 13.155,17.141 13.085,17.131 C12.967,17.115 12.843,17.114 12.721,17.105 C12.601,17.097 12.482,17.085 12.359,17.085 C12.359,17.163 12.345,21.806 12.330,27.473 C12.327,28.760 12.323,30.099 12.320,31.450 L13.849,31.462 C14.640,31.463 15.280,32.082 15.328,32.859 L15.337,32.859 L15.333,35.643 L15.316,36.424 C15.316,36.424 15.323,36.431 15.327,36.434 C15.326,36.465 15.322,36.492 15.322,36.524 C15.319,38.558 16.969,40.210 19.007,40.212 C20.167,40.214 21.200,39.679 21.878,38.845 C21.882,38.840 21.887,38.836 21.891,38.830 C22.021,38.992 22.167,39.139 22.321,39.276 C22.972,39.859 23.828,40.219 24.771,40.220 C24.890,40.220 25.007,40.213 25.123,40.202 C24.573,41.554 23.264,42.511 21.724,42.509 C21.683,42.509 21.643,42.506 21.603,42.504 C21.602,42.505 21.604,42.509 21.601,42.509 C17.154,42.330 13.406,44.724 12.304,47.619 C12.306,47.839 12.308,47.972 12.311,48.000 C11.884,47.790 11.466,47.564 11.055,47.328 C11.003,47.299 10.952,47.270 10.901,47.240 C10.075,46.757 9.284,46.222 8.532,45.640 C8.481,45.600 8.431,45.560 8.381,45.521 C8.021,45.237 7.669,44.945 7.329,44.640 C7.319,44.631 7.309,44.623 7.299,44.614 C6.942,44.294 6.598,43.962 6.263,43.619 C6.221,43.577 6.181,43.533 6.140,43.491 C5.848,43.188 5.566,42.876 5.291,42.557 C5.248,42.506 5.204,42.457 5.161,42.406 C4.857,42.046 4.565,41.677 4.285,41.298 C4.264,41.270 4.245,41.241 4.224,41.213 C3.973,40.870 3.733,40.517 3.502,40.159 C3.450,40.080 3.399,40.000 3.349,39.920 C2.860,39.142 2.420,38.331 2.031,37.492 C1.985,37.394 1.942,37.296 1.898,37.198 C1.735,36.834 1.582,36.465 1.439,36.090 C1.415,36.026 1.388,35.964 1.364,35.900 C1.205,35.471 1.061,35.034 0.928,34.593 C0.898,34.492 0.871,34.390 0.842,34.288 C0.739,33.926 0.645,33.561 0.561,33.191 C0.536,33.084 0.509,32.977 0.486,32.869 C0.390,32.417 0.306,31.961 0.238,31.500 C0.226,31.419 0.219,31.337 0.208,31.257 C0.154,30.865 0.112,30.469 0.080,30.072 C0.069,29.943 0.059,29.815 0.051,29.686 C0.021,29.211 0.000,28.732 0.001,28.249 C0.017,16.116 9.881,6.293 22.035,6.309 C34.188,6.325 44.026,16.173 44.011,28.306 C44.010,28.750 43.992,29.189 43.966,29.626 ZM26.471,26.414 C26.868,26.415 27.214,26.206 27.411,25.894 C27.518,25.723 27.583,25.523 27.583,25.307 C27.584,24.695 27.087,24.198 26.474,24.197 C26.471,24.197 26.469,24.198 26.466,24.198 C25.857,24.202 25.363,24.695 25.362,25.304 C25.361,25.917 25.858,26.414 26.471,26.414 ZM39.090,18.900 C35.806,13.017 29.533,9.023 22.316,8.975 C22.307,8.975 22.299,8.973 22.290,8.973 C22.284,8.973 22.279,8.975 22.274,8.974 C22.253,8.974 22.233,8.973 22.212,8.973 L22.212,8.981 C21.675,9.020 21.251,9.462 21.250,10.008 C21.249,10.554 21.673,10.996 22.209,11.038 L22.209,11.044 C28.621,11.052 34.207,14.551 37.178,19.736 C37.332,20.119 37.706,20.391 38.145,20.391 C38.720,20.392 39.188,19.927 39.189,19.352 C39.189,19.190 39.149,19.039 39.084,18.903 L39.090,18.900 ZM40.544,22.205 L40.532,22.210 C40.391,21.802 40.008,21.507 39.552,21.506 C38.976,21.506 38.508,21.971 38.507,22.546 C38.507,22.728 38.558,22.896 38.639,23.045 C39.162,24.681 39.447,26.422 39.453,28.229 C39.453,28.232 39.452,28.235 39.452,28.238 C39.451,28.811 39.915,29.275 40.489,29.276 C41.062,29.276 41.527,28.813 41.528,28.241 C41.524,26.132 41.175,24.104 40.544,22.205 ZM22.763,2.508 L22.760,5.035 C22.760,5.364 22.492,5.630 22.163,5.630 C21.833,5.629 21.566,5.362 21.567,5.033 L21.570,2.507 C21.138,2.287 20.838,1.843 20.839,1.326 C20.840,0.594 21.436,0.000 22.170,0.001 C22.904,0.002 23.498,0.597 23.497,1.330 C23.497,1.847 23.197,2.290 22.763,2.508 Z" class="cls-2"/>
  </g>
</svg>
