<svg id="logo" xmlns="http://www.w3.org/2000/svg" width="261.5" height="59.093" viewBox="0 0 261.5 59.093">
  <defs>
    <style>
      .cls-1 {
        fill: #fff;
      }

      .cls-1, .cls-2, .cls-3, .cls-4, .cls-5 {
        fill-rule: evenodd;
      }

      .cls-2 {
        fill: #241e46;
      }

      .cls-3 {
        fill: #ea5153;
      }

      .cls-4 {
        fill: #59c6f2;
      }

      .cls-5 {
        fill: #e76363;
      }
    </style>
  </defs>
  <path class="cls-1" d="M132.4,458.926A25.778,25.778,0,1,1,106.625,433.3,25.7,25.7,0,0,1,132.4,458.926Z" transform="translate(-80.5 -425.438)"/>
  <path class="cls-2" d="M109.373,472.358a4.265,4.265,0,0,1-3.343-1.612,4.262,4.262,0,0,1-2.965,1.59c-2.081-2-4.544-4.234-4.544-4.234l0.019-.91v-3.245H98.53a1.732,1.732,0,0,0-1.727-1.626l-1.894-.012v19.146c1.127-3.509,5.611-6.478,10.954-6.27,0,0,0,0,0-.006,0.047,0,.094.006,0.141,0.006a4.293,4.293,0,0,0,4.047-2.886A4.235,4.235,0,0,1,109.373,472.358Z" transform="translate(-80.5 -425.438)"/>
  <path class="cls-3" d="M102.29,455.1a1.307,1.307,0,1,1-1.307-1.3A1.3,1.3,0,0,1,102.29,455.1Zm7.379,10.926h-6.782c-2.4,0-4.343-.141-4.343,2.246a4.347,4.347,0,0,0,7.735,2.694,4.346,4.346,0,0,0,7.734-2.694C114.013,465.889,112.069,466.03,109.669,466.03ZM108.111,427a1.564,1.564,0,1,0-2.266,1.383v2.962a0.7,0.7,0,0,0,1.4,0V428.38A1.549,1.549,0,0,0,108.111,427Zm-7.559,21.821a6.18,6.18,0,0,0-5.622-3.337v12.742s0.012,0.261.016,0.261A11.9,11.9,0,0,1,100.552,448.818Z" transform="translate(-80.5 -425.438)"/>
  <path class="cls-3" d="M107.311,448.009a10.838,10.838,0,0,0-1.16.063A11.11,11.11,0,0,0,117.127,461c0.293,0,.582-0.015.868-0.037v-2.275A10.679,10.679,0,0,0,107.311,448.009Zm5.038,8.65a1.233,1.233,0,1,1,1.234-1.233A1.233,1.233,0,0,1,112.349,456.659Z" transform="translate(-80.5 -425.438)"/>
  <path class="cls-2" d="M109.119,466.96a3.065,3.065,0,0,1-6.129,0c0-1.682,1.372-1.583,3.065-1.583S109.119,465.278,109.119,466.96Z" transform="translate(-80.5 -425.438)"/>
  <path class="cls-4" d="M95.082,445.912a6.251,6.251,0,0,1,5.545,3.336,11.774,11.774,0,0,1,11.678.081,6.12,6.12,0,0,1,5.463-3.354l0.006,27.9a10.353,10.353,0,0,0,2.63,6.9,26,26,0,1,0-25.332,1.383C95.018,481.6,95.082,445.912,95.082,445.912Zm44.588-2.531,0,0c-0.008,0-.013,0-0.021,0a0.434,0.434,0,0,1-.436-0.432,0.2,0.2,0,0,0,0-.029,0.848,0.848,0,0,0-1.7,0l-0.006,0c0,0.008.005,0.016,0.005,0.024a0.435,0.435,0,0,1-.438.432c-0.008,0-.016,0-0.024,0l0,0a0.841,0.841,0,1,0,0,1.681l0,0a0.169,0.169,0,0,1,.024,0,0.436,0.436,0,0,1,.438.433c0,0.009-.005.016-0.005,0.024l0.006,0.006a0.848,0.848,0,0,0,1.7,0,0.226,0.226,0,0,0,0-.03,0.434,0.434,0,0,1,.436-0.433c0.008,0,.014,0,0.022,0l0,0A0.841,0.841,0,1,0,139.67,443.381Zm-5.983-9.124,0,0c-0.007,0-.013,0-0.02,0a0.435,0.435,0,0,1-.437-0.433,0.2,0.2,0,0,0,0-.029,0.848,0.848,0,0,0-1.7,0l-0.006,0a0.169,0.169,0,0,1,0,.024,0.435,0.435,0,0,1-.437.433c-0.008,0-.016,0-0.025,0l0,0a0.84,0.84,0,1,0,0,1.68l0,0a0.221,0.221,0,0,1,.025,0,0.435,0.435,0,0,1,.437.433,0.169,0.169,0,0,1,0,.024l0.006,0.006a0.848,0.848,0,0,0,1.7,0,0.226,0.226,0,0,0,0-.03,0.435,0.435,0,0,1,.437-0.433c0.007,0,.014,0,0.021,0l0,0A0.84,0.84,0,1,0,133.687,434.257Zm11.967,0,0,0c-0.008,0-.014,0-0.021,0a0.435,0.435,0,0,1-.437-0.433,0.2,0.2,0,0,0-.005-0.029,0.848,0.848,0,0,0-1.7,0l-0.006,0a0.169,0.169,0,0,1,.005.024,0.435,0.435,0,0,1-.437.433c-0.008,0-.016,0-0.025,0l0,0a0.84,0.84,0,1,0,0,1.68l0,0a0.221,0.221,0,0,1,.025,0,0.435,0.435,0,0,1,.437.433,0.169,0.169,0,0,1-.005.024l0.006,0.006a0.848,0.848,0,0,0,1.7,0,0.26,0.26,0,0,0,.005-0.03,0.435,0.435,0,0,1,.437-0.433c0.007,0,.014,0,0.021,0l0,0A0.84,0.84,0,1,0,145.654,434.257Z" transform="translate(-80.5 -425.438)"/>
  <path id="Фигура_3_copy_2" data-name="Фигура 3 copy 2" class="cls-5" d="M172.088,452.286h-3.342l-2.842,6.02h-3.667v-6.02H159v15.407h3.233v-6.474h3.689l3.015,6.474h3.342l-3.667-7.919Zm47.807,0h-3.341l-2.843,6.02h-3.666v-6.02h-3.233v15.407h3.233v-6.474h3.688l3.016,6.474h3.341l-3.666-7.919Zm30.151,6h-6.857v-6h-3.233v15.407h3.233v-6.452h6.857v6.452h3.232V452.286h-3.232v6Zm33.008,0.216H282.49l-2.538-6.215h-4.969v15.407H278v-11.48h0.564l2.582,6.215h3.233l2.6-6.215h0.564v11.48h3.015V452.286h-4.99Zm14.967,4.531h-0.564V452.286h-3.016v15.407h4.209l5.707-10.983h0.564v10.983h3.037V452.286H303.6Zm26.9-10.746H321.58l-2.842,6.02h-3.667v-6.02h-3.233v15.407h3.233v-6.474h3.689l3.015,6.474h3.342l-3.667-7.919Zm-145.971,0-4.926,15.407h3.19l3.71-12.321h0.955l2.826,9.276h-3.4l-0.973,3.045h8.58l-4.947-15.407H178.95Zm19.208,12.451a4.742,4.742,0,1,1,3.463-8l2.37-2.232a7.987,7.987,0,1,0,.028,10.952l-2.381-2.219A4.735,4.735,0,0,1,198.158,464.737Zm31.029-12.729a7.987,7.987,0,1,0,5.861,13.448,7.953,7.953,0,0,0-.029-10.952A8.083,8.083,0,0,0,229.187,452.008Zm3.48,11.229A4.722,4.722,0,1,1,233.955,460,4.736,4.736,0,0,1,232.667,463.237Zm31.315-11.229a7.987,7.987,0,1,0,5.861,13.448,7.956,7.956,0,0,0-.029-10.952A8.085,8.085,0,0,0,263.982,452.008Zm3.479,11.229A4.72,4.72,0,1,1,268.75,460,4.734,4.734,0,0,1,267.461,463.237Zm69.592-10.951h-5.012l-4.925,15.407h3.189l3.71-12.321h0.955l2.826,9.276h-3.4l-0.973,3.045H342Z" transform="translate(-80.5 -425.438)"/>
</svg>
