<svg xmlns="http://www.w3.org/2000/svg" xmlns:xlink="http://www.w3.org/1999/xlink" preserveAspectRatio="xMidYMid" width="212.531" height="21.25" viewBox="0 0 212.531 21.25">
  <defs>
    <style>
      .cls-1 {
        fill: #fff;
        fill-rule: evenodd;
      }
    </style>
  </defs>
  <path d="M210.650,21.258 L193.140,21.258 C192.120,21.258 191.270,20.408 191.270,19.387 L191.270,1.877 C191.270,0.857 192.120,0.007 193.140,0.007 L210.650,0.007 C211.670,0.007 212.520,0.857 212.520,1.877 L212.520,19.387 C212.520,20.408 211.670,21.258 210.650,21.258 ZM209.651,4.215 C208.992,4.597 208.270,4.874 207.505,5.022 C206.867,4.342 205.975,3.960 205.061,3.960 C203.191,3.960 201.682,5.469 201.682,7.339 C201.682,7.594 201.704,7.849 201.767,8.104 C199.069,7.955 196.540,6.680 194.818,4.576 C194.521,5.086 194.372,5.681 194.372,6.276 C194.372,7.402 194.925,8.444 195.881,9.081 C195.328,9.060 194.818,8.911 194.351,8.656 L194.351,8.699 C194.308,10.292 195.477,11.674 197.050,11.992 C196.752,12.077 196.455,12.120 196.157,12.120 C195.945,12.120 195.732,12.099 195.520,12.056 C195.966,13.416 197.241,14.372 198.665,14.394 C197.475,15.329 196.008,15.839 194.478,15.839 C194.223,15.839 193.947,15.817 193.692,15.796 C195.222,16.774 197.029,17.305 198.856,17.305 C202.745,17.305 206.017,15.201 207.590,11.631 C208.121,10.399 208.440,9.060 208.440,7.721 C208.440,7.572 208.440,7.424 208.419,7.275 C209.077,6.807 209.651,6.212 210.097,5.532 C209.481,5.809 208.844,6.000 208.164,6.064 C208.865,5.660 209.396,4.980 209.651,4.215 ZM162.835,21.258 L145.325,21.258 C144.305,21.258 143.455,20.408 143.455,19.387 L143.455,1.877 C143.455,0.857 144.305,0.007 145.325,0.007 L162.835,0.007 C163.855,0.007 164.705,0.857 164.705,1.877 L164.705,19.387 C164.705,20.408 163.855,21.258 162.835,21.258 ZM162.171,7.171 C162.157,6.507 162.032,5.850 161.799,5.228 C161.383,4.154 160.534,3.305 159.460,2.889 C158.838,2.656 158.181,2.531 157.517,2.517 C156.665,2.478 156.391,2.469 154.219,2.469 C152.047,2.469 151.773,2.478 150.921,2.517 C150.257,2.531 149.600,2.656 148.978,2.889 C147.904,3.305 147.055,4.154 146.639,5.228 C146.406,5.850 146.281,6.507 146.267,7.171 C146.228,8.023 146.219,8.297 146.219,10.469 C146.219,12.641 146.228,12.915 146.267,13.767 C146.281,14.431 146.406,15.088 146.639,15.710 C147.055,16.784 147.904,17.633 148.978,18.049 C149.600,18.282 150.257,18.407 150.921,18.421 C151.773,18.460 152.047,18.469 154.219,18.469 C156.391,18.469 156.665,18.460 157.517,18.421 C158.181,18.407 158.838,18.282 159.460,18.049 C160.534,17.633 161.383,16.784 161.799,15.710 C162.032,15.088 162.157,14.431 162.171,13.767 C162.210,12.915 162.219,12.641 162.219,10.469 C162.219,8.297 162.210,8.023 162.171,7.171 ZM160.455,15.188 C160.186,15.884 159.634,16.436 158.938,16.705 C158.461,16.881 157.959,16.975 157.452,16.981 C156.608,17.019 156.356,17.028 154.219,17.028 C152.082,17.028 151.830,17.019 150.986,16.981 C150.479,16.975 149.977,16.881 149.500,16.705 C148.804,16.436 148.252,15.884 147.983,15.188 C147.807,14.711 147.713,14.209 147.707,13.702 C147.669,12.858 147.660,12.606 147.660,10.469 C147.660,8.332 147.669,8.080 147.707,7.236 C147.713,6.729 147.807,6.227 147.983,5.750 C148.252,5.054 148.804,4.502 149.500,4.233 C149.977,4.057 150.479,3.963 150.986,3.957 C151.830,3.919 152.082,3.910 154.219,3.910 C156.356,3.910 156.608,3.919 157.452,3.957 C157.959,3.963 158.461,4.057 158.938,4.233 C159.634,4.502 160.186,5.054 160.455,5.750 C160.631,6.227 160.725,6.729 160.731,7.236 C160.769,8.080 160.778,8.332 160.778,10.469 C160.778,12.606 160.769,12.858 160.731,13.702 C160.725,14.209 160.631,14.711 160.455,15.188 ZM154.219,6.361 C151.951,6.361 150.111,8.201 150.111,10.469 C150.111,12.737 151.951,14.577 154.219,14.577 C156.487,14.577 158.327,12.737 158.327,10.469 C158.327,8.201 156.487,6.361 154.219,6.361 ZM158.490,5.238 C157.959,5.238 157.530,5.668 157.530,6.198 C157.530,6.729 157.959,7.158 158.490,7.158 C159.020,7.158 159.450,6.729 159.450,6.198 C159.450,5.668 159.020,5.238 158.490,5.238 ZM154.219,13.136 C152.746,13.136 151.552,11.942 151.552,10.469 C151.552,8.996 152.746,7.802 154.219,7.802 C155.692,7.802 156.886,8.996 156.886,10.469 C156.886,11.942 155.692,13.136 154.219,13.136 ZM115.020,21.258 L97.509,21.258 C96.489,21.258 95.639,20.408 95.639,19.387 L95.639,1.877 C95.639,0.857 96.489,0.007 97.509,0.007 L115.020,0.007 C116.040,0.007 116.890,0.857 116.890,1.877 L116.890,19.387 C116.890,20.408 116.040,21.258 115.020,21.258 ZM99.889,17.007 L102.609,17.007 L102.609,8.104 L99.889,8.104 L99.889,17.007 ZM101.271,4.257 C100.463,4.257 99.826,4.810 99.826,5.639 C99.826,6.446 100.421,7.020 101.228,7.020 C102.057,7.020 102.694,6.489 102.694,5.639 C102.694,4.810 102.078,4.257 101.271,4.257 ZM112.576,11.759 C112.576,9.719 111.683,7.912 109.431,7.912 C108.347,7.912 107.285,8.422 106.711,9.357 L106.668,9.357 L106.541,8.104 L104.182,8.104 C104.267,11.079 104.246,14.032 104.246,17.007 L106.966,17.007 L106.966,11.886 C106.966,11.652 106.966,11.419 107.051,11.185 C107.263,10.590 107.816,10.144 108.453,10.144 C109.580,10.144 109.835,11.142 109.835,12.077 L109.835,17.007 L112.576,17.007 L112.576,11.759 ZM67.205,21.258 L49.694,21.258 C48.674,21.258 47.824,20.408 47.824,19.387 L47.824,1.877 C47.824,0.857 48.674,0.007 49.694,0.007 L67.205,0.007 C68.225,0.007 69.075,0.857 69.075,1.877 L69.075,19.387 C69.075,20.408 68.225,21.258 67.205,21.258 ZM62.487,2.451 C60.128,2.451 59.151,4.236 59.151,6.382 L59.151,7.806 L57.748,7.806 L57.748,10.632 L59.151,10.632 L59.151,18.431 L61.998,18.431 L61.998,10.632 L64.825,10.632 L64.825,7.806 L61.998,7.806 L61.998,6.127 C61.998,5.426 63.188,5.065 63.741,5.065 C64.187,5.065 64.676,5.150 65.101,5.277 L65.526,2.770 C64.740,2.493 63.295,2.451 62.487,2.451 ZM19.368,21.258 L1.858,21.258 C0.838,21.258 -0.012,20.408 -0.012,19.387 L-0.012,1.877 C-0.012,0.857 0.838,0.007 1.858,0.007 L19.368,0.007 C20.388,0.007 21.238,0.857 21.238,1.877 L21.238,19.387 C21.238,20.408 20.388,21.258 19.368,21.258 ZM15.288,7.211 C15.288,4.491 12.696,4.257 10.592,4.257 L5.662,4.257 L5.662,17.007 L11.038,17.007 C13.588,17.007 16.138,16.051 16.138,13.097 C16.138,11.419 15.139,10.356 13.524,10.016 L13.524,9.952 C14.651,9.485 15.288,8.422 15.288,7.211 ZM10.231,14.670 L9.126,14.670 L9.126,11.482 L10.613,11.482 C11.739,11.482 12.844,11.610 12.844,13.034 C12.844,14.564 11.421,14.670 10.231,14.670 ZM9.997,9.294 L9.126,9.294 L9.126,6.595 L10.082,6.595 C11.017,6.595 12.037,6.680 12.037,7.870 C12.037,9.187 11.038,9.294 9.997,9.294 Z" class="cls-1"/>
</svg>
