<svg xmlns="http://www.w3.org/2000/svg" width="24.03" height="9.469" viewBox="0 0 24.03 9.469">
  <defs>
    <style>
      .cls-1 {
        fill: #fff;
        fill-rule: evenodd;
      }
    </style>
  </defs>
  <path id="SOS" class="cls-1" d="M1322.42,44.5a3.316,3.316,0,0,0,1.05-.553,2.6,2.6,0,0,0,.69-0.877,2.792,2.792,0,0,0,.24-1.183,2.645,2.645,0,0,0-.19-1.059,2.393,2.393,0,0,0-.54-0.78,3.171,3.171,0,0,0-.81-0.559,7.757,7.757,0,0,0-1.01-.4c-0.32-.1-0.6-0.2-0.85-0.279a3.028,3.028,0,0,1-.63-0.267,1.259,1.259,0,0,1-.39-0.319,0.757,0.757,0,0,1-.13-0.435,0.82,0.82,0,0,1,.33-0.65,1.67,1.67,0,0,1,1.06-.273,4.3,4.3,0,0,1,.69.059,5.857,5.857,0,0,1,.7.162,5.419,5.419,0,0,1,.67.254,4.8,4.8,0,0,1,.58.319V35.91a4.27,4.27,0,0,0-1.17-.494,5.892,5.892,0,0,0-1.53-.182,4.352,4.352,0,0,0-1.3.182,2.89,2.89,0,0,0-.98.52,2.151,2.151,0,0,0-.63.813,2.473,2.473,0,0,0-.22,1.072,2.535,2.535,0,0,0,.21,1.092,2.209,2.209,0,0,0,.57.748,3.332,3.332,0,0,0,.84.514,9.576,9.576,0,0,0,1.03.377c0.29,0.1.56,0.186,0.79,0.273a3.56,3.56,0,0,1,.6.286,1.308,1.308,0,0,1,.38.358,0.94,0.94,0,0,1,.13.487,0.813,0.813,0,0,1-.14.462,1.2,1.2,0,0,1-.36.345,1.794,1.794,0,0,1-.52.221,2.473,2.473,0,0,1-.62.078,4.46,4.46,0,0,1-1.63-.3,4.37,4.37,0,0,1-1.31-.754V43.8a3.907,3.907,0,0,0,1.34.65,6.037,6.037,0,0,0,1.74.247A4.252,4.252,0,0,0,1322.42,44.5Zm9.32-.163a3.887,3.887,0,0,0,1.33-.995,4.493,4.493,0,0,0,.85-1.5,6.031,6.031,0,0,0,0-3.757,4.5,4.5,0,0,0-.85-1.5,3.9,3.9,0,0,0-1.33-.995,3.992,3.992,0,0,0-1.71-.357,4.057,4.057,0,0,0-1.71.357,3.857,3.857,0,0,0-1.32.995,4.52,4.52,0,0,0-.86,1.5,6.229,6.229,0,0,0,0,3.757,4.514,4.514,0,0,0,.86,1.5,3.85,3.85,0,0,0,1.32.995,4.055,4.055,0,0,0,1.71.358A3.991,3.991,0,0,0,1331.74,44.34Zm-2.68-1.547a2.228,2.228,0,0,1-.76-0.631,3.066,3.066,0,0,1-.49-0.962,4.571,4.571,0,0,1,0-2.47,3.073,3.073,0,0,1,.49-0.962,2.235,2.235,0,0,1,.76-0.63,2.082,2.082,0,0,1,.97-0.227,2.123,2.123,0,0,1,.98.227,2.3,2.3,0,0,1,.75.63,3.073,3.073,0,0,1,.49.962,4.571,4.571,0,0,1,0,2.47,3.066,3.066,0,0,1-.49.962,2.292,2.292,0,0,1-.75.631,2.12,2.12,0,0,1-.98.227A2.079,2.079,0,0,1,1329.06,42.793Zm11.01,1.709a3.114,3.114,0,0,0,1.05-.553,2.6,2.6,0,0,0,.69-0.877,2.794,2.794,0,0,0,.25-1.183,2.641,2.641,0,0,0-.2-1.059,2.393,2.393,0,0,0-.54-0.78,3.171,3.171,0,0,0-.81-0.559,7.613,7.613,0,0,0-1-.4c-0.32-.1-0.61-0.2-0.86-0.279a3.58,3.58,0,0,1-.63-0.267,1.106,1.106,0,0,1-.38-0.319,0.69,0.69,0,0,1-.13-0.435,0.82,0.82,0,0,1,.33-0.65,1.651,1.651,0,0,1,1.06-.273,4.28,4.28,0,0,1,.68.059,5.374,5.374,0,0,1,1.37.416,4.966,4.966,0,0,1,.59.319V35.91a4.27,4.27,0,0,0-1.17-.494,5.972,5.972,0,0,0-1.54-.182,4.285,4.285,0,0,0-1.29.182,2.847,2.847,0,0,0-.99.52,2.371,2.371,0,0,0-.63.813,2.473,2.473,0,0,0-.22,1.072,2.535,2.535,0,0,0,.21,1.092,2.372,2.372,0,0,0,.58.748,3.1,3.1,0,0,0,.83.514,10.434,10.434,0,0,0,1.03.377c0.3,0.1.56,0.186,0.79,0.273a2.942,2.942,0,0,1,.6.286,1.192,1.192,0,0,1,.38.358,0.854,0.854,0,0,1,.13.487,0.813,0.813,0,0,1-.14.462,1.286,1.286,0,0,1-.35.345,1.92,1.92,0,0,1-.52.221,2.494,2.494,0,0,1-.63.078,4.671,4.671,0,0,1-2.94-1.053V43.8a4,4,0,0,0,1.34.65,6.138,6.138,0,0,0,1.74.247A4.252,4.252,0,0,0,1340.07,44.5Z" transform="translate(-1318.03 -35.219)"/>
</svg>
