<?xml version="1.0" encoding="utf-8"?>
<!-- Generator: Adobe Illustrator 17.0.1, SVG Export Plug-In . SVG Version: 6.00 Build 0)  -->
<!DOCTYPE svg PUBLIC "-//W3C//DTD SVG 1.1//EN" "http://www.w3.org/Graphics/SVG/1.1/DTD/svg11.dtd">
<svg version="1.1" id="Layer_1" xmlns="http://www.w3.org/2000/svg" xmlns:xlink="http://www.w3.org/1999/xlink" x="0px" y="0px"
	 width="208px" height="32px" viewBox="0 0 207.084 31.728" enable-background="new 0 0 208 32"
	 xml:space="preserve">
<g>
	<g>
		<path fill-rule="evenodd" clip-rule="evenodd" fill="#002E6C" d="M92.353,26.44h-3.428v-7.449l-4.02,7.449h-4.117V15.864h3.451
			v7.275l3.922-7.275h4.191V26.44 M80.102,26.44h-4.719c-2.59,0-4.61-2.121-4.61-5.143c0-3.389,2.021-5.434,4.646-5.434h4.684v2.637
			H77.06c-1.85,0-2.848,0.553-2.848,2.742c0,2.164,1.01,2.57,2.848,2.57h3.041V26.44z M32.715,26.44h-3.73l1.701-2.992l-4.247-7.584
			h3.827l2.213,4.509l2.215-4.509h3.729L32.715,26.44z M99.426,23.976c0.763,0,0.763-0.6,0.763-0.848c0-0.246,0-0.783-0.774-0.783
			h-2.933v1.631H99.426z M99.994,19.884c3.623,0,3.623,2.055,3.633,3.201c0,1.212-0.01,3.355-3.6,3.355h-6.975V15.864h10.051v2.637
			h-6.622v1.383H99.994z M54.06,18.865l-0.012-0.033l-1.074,3.011h2.184L54.06,18.865z M47.699,26.44l4.447-10.576h3.848
			l3.678,8.807l3.719-8.807h3.772l4.504,10.576h-3.644l-2.731-7.621l-2.729,7.621h-5.771l-0.816-2.177h-3.828L51.31,26.44H47.699z
			 M42.109,18.486v2.274h2.461c0.42,0,1.396,0,1.396-1.18c0-1.094-0.977-1.094-1.363-1.094H42.109z M42.121,26.44h-3.43V15.874
			l7.094-0.01c3.621,0,3.621,2.968,3.621,3.63c0,0.708,0,3.892-3.621,3.892h-3.664V26.44z"/>
		<path fill-rule="evenodd" clip-rule="evenodd" fill="#002E6C" d="M10.576,13.828c-5.25,0-9.693,3.616-9.693,8.274
			c0,1.471,0.469,2.978,1.402,4.36c2.489-2.327,4.668-6.591,5.51-11.644c0.103-0.041,0.838-0.206,1.426-0.246
			c0,0.731-0.621,11.573-4.461,15.414C1.893,28.095,0,24.845,0,21.153c0-5.049,3.535-9.27,8.266-10.325
			C8.518,7.44,8.518,6.056,8.529,4.36h0.838c0,0.018-0.027,4.741-0.049,6.29c0.288-0.036,0.584-0.058,0.881-0.067
			c0-2.712,0.012-7.697,0.021-10.583h0.711c0.01,2.887,0.021,7.872,0.021,10.583c0.297,0.009,0.59,0.031,0.881,0.067
			c-0.022-1.549-0.051-6.272-0.051-6.29h0.838c0.012,1.695,0.012,3.08,0.268,6.468c4.729,1.054,8.261,5.276,8.261,10.325
			c0,3.691-1.89,6.941-4.757,8.833c-3.842-3.841-4.463-14.683-4.463-15.414c0.588,0.04,1.324,0.206,1.427,0.246
			c0.839,5.052,3.021,9.316,5.509,11.644c0.934-1.382,1.404-2.89,1.404-4.36C20.269,17.444,15.826,13.828,10.576,13.828
			 M7.291,31.206c1.541-2.669,2.398-7.774,2.727-16.717h1.115c0.33,8.943,1.188,14.048,2.729,16.717
			c-1.033,0.34-2.139,0.522-3.285,0.522S8.324,31.546,7.291,31.206z"/>
		<rect x="113.824" y="13.095" fill-rule="evenodd" clip-rule="evenodd" fill="#002E6C" width="0.73" height="15.966"/>
		<g>
			<g>
				<path fill-rule="evenodd" clip-rule="evenodd" fill="#002E6C" d="M130.935,24.889c-0.699,0.233-1.41,0.336-2.045,0.336
					c-1.963,0-4.109-1.116-4.109-3.997c0-2.722,1.92-4.087,4.404-4.087c0.621,0,1.15,0.078,1.75,0.272l-0.068,1.355
					c-0.463-0.18-0.971-0.295-1.57-0.295c-1.774,0-2.822,1.12-2.822,2.733c0,1.905,1.287,2.688,2.711,2.688
					c0.699,0,1.253-0.17,1.648-0.35L130.935,24.889z"/>
				<path fill-rule="evenodd" clip-rule="evenodd" fill="#002E6C" d="M137.721,17.232v1.397h-2.279v6.504h-1.604V18.63h-2.281
					v-1.397H137.721z"/>
				<path fill-rule="evenodd" clip-rule="evenodd" fill="#002E6C" d="M141.019,17.232c2.867,0,3.037,1.976,3.037,2.471
					c0,1.037-0.725,2.461-2.746,2.461h-1.025v2.97h-1.604v-7.902H141.019z M141.019,20.923c0.971,0,1.344-0.668,1.344-1.264
					c0-0.657-0.42-1.186-1.344-1.186h-0.734v2.45H141.019z"/>
				<path fill-rule="evenodd" clip-rule="evenodd" fill="#002E6C" d="M149.656,17.232l3.137,7.902h-1.805l-0.666-1.774h-3.262
					l-0.666,1.774h-1.719l3.152-7.902H149.656z M149.848,22.05l-1.16-3.229h-0.025l-1.094,3.229H149.848z"/>
				<path fill-rule="evenodd" clip-rule="evenodd" fill="#002E6C" d="M155.326,17.232l1.264,2.199l0.361,0.668h0.035l0.359-0.668
					l1.299-2.199h1.75l-2.406,3.77l2.645,4.132h-1.896l-1.516-2.508l-0.336-0.607h-0.035l-0.338,0.607l-1.57,2.508h-1.75
					l2.641-4.132l-2.402-3.77H155.326z"/>
				<path fill-rule="evenodd" clip-rule="evenodd" fill="#002E6C" d="M169.111,21.181c0,2.872-1.92,4.044-3.871,4.044
					c-1.953,0-3.873-1.172-3.873-4.044c0-2.865,1.92-4.04,3.873-4.04C167.191,17.141,169.111,18.315,169.111,21.181z M163.06,21.181
					c0,2.676,1.58,2.914,2.18,2.914c0.596,0,2.176-0.238,2.176-2.914c0-2.675-1.58-2.909-2.176-2.909
					C164.641,18.272,163.06,18.506,163.06,21.181z"/>
				<path fill-rule="evenodd" clip-rule="evenodd" fill="#002E6C" d="M173.01,17.232c1.535,0,2.629,0.621,2.629,1.95
					c0,1.188-0.723,1.651-1.289,1.82v0.021c1.02,0.157,1.66,0.894,1.66,1.885c0,0.984-0.574,2.226-3.105,2.226h-2.494v-7.902H173.01
					z M172.014,20.44h0.781c1.037,0,1.23-0.633,1.23-0.985c0-0.227-0.057-0.982-1.301-0.982h-0.711V20.44z M172.014,23.893h0.891
					c1.006,0,1.414-0.543,1.414-1.107c0-0.565-0.305-1.107-1.414-1.107h-0.891V23.893z"/>
				<path fill-rule="evenodd" clip-rule="evenodd" fill="#002E6C" d="M181.838,17.232l3.137,7.902h-1.805l-0.666-1.774h-3.262
					l-0.67,1.774h-1.716l3.151-7.902H181.838z M182.029,22.05l-1.164-3.229h-0.021l-1.096,3.229H182.029z"/>
				<path fill-rule="evenodd" clip-rule="evenodd" fill="#002E6C" d="M187.541,17.232v3.182h3.207v-3.182h1.602v7.902h-1.602v-3.419
					h-3.207v3.419h-1.607v-7.902H187.541z"/>
				<path fill-rule="evenodd" clip-rule="evenodd" fill="#002E6C" d="M195.533,17.232v4.065l-0.031,1.916h0.031l0.566-1.153
					l2.764-4.829h1.924v7.902h-1.604v-4.077l0.031-1.909h-0.031l-0.545,1.198l-2.789,4.788h-1.918v-7.902H195.533z"/>
				<path fill-rule="evenodd" clip-rule="evenodd" fill="#002E6C" d="M207.084,17.232v1.397h-3.115v1.785h2.836v1.3h-2.836v2.017
					h3.115v1.402h-4.721v-7.902H207.084z"/>
			</g>
		</g>
	</g>
</g>
</svg>
